:SAMPLES-PER-SECOND 30
:FULLY-SPECIFIED
:DEGREES
690
root  -2.17704 34.81 2.71044 -11.4846 -88.3911 8.07947
RightUpLeg  -31.3365 7.51696 2.65028
RightLeg  64.5773 -6.16986 -14.4936
RightFoot  -13.4129 0.0752353 9.1612
RightToes  6.35927e-011 1.30204e-014 -6.03759e-014
Spine  40.0986 -1.33014 2.93491
Spine1  18.0447 0.861757 -3.67142
HEad  2.70039 -1.08079 4.20162
LeftShoulder1  1.15491 -2.46606 -12.2479
LeftArm  8.99471 30.8519 -40.1467
LeftForeArm  -172.306 -81.9073 -115.564
LeftHand  -3.19069 -8.47673 26.0962
RightShoulder  0.956908 0.991427 14.494
RightArm  4.66345 -43.8908 40.9722
RightForeArm  135.423 82.0732 79.2786
RightHand  -2.39674 6.53522 -23.45
LeftUpLeg  -46.8264 -12.0967 8.66107
LeftLeg  80.7183 0.301197 4.62548
LeftFoot  9.08918 1.8827 -10.7044
LeftToes  7.40077e-010 7.2695e-011 -6.03601e-011
691
root  -1.6537 35.1357 2.8267 -8.38489 -86.9303 7.53339
RightUpLeg  -33.4528 5.55832 1.49445
RightLeg  61.888 -6.56878 -13.6449
RightFoot  -12.9668 0.031745 8.40607
RightToes  6.35927e-011 1.30204e-014 -6.03759e-014
Spine  39.844 -2.01135 2.78084
Spine1  19.0585 -0.116379 -3.18236
HEad  3.39095 -1.82308 4.23196
LeftShoulder1  1.28019 -3.12624 -12.2101
LeftArm  7.65994 29.6731 -38.8943
LeftForeArm  -165.99 -81.4484 -119.966
LeftHand  -4.10967 -6.34316 40.791
RightShoulder  0.997041 1.06967 15.0583
RightArm  2.74263 -42.818 39.5032
RightForeArm  117.596 81.2469 64.2542
RightHand  -3.69284 8.20993 -31.6358
LeftUpLeg  -43.5944 -11.6455 6.98096
LeftLeg  74.7514 0.685795 4.01018
LeftFoot  6.18573 2.45012 -16.3098
LeftToes  7.40077e-010 7.2695e-011 -6.03601e-011
692
root  -1.22233 35.5826 2.98064 -12.0237 -86.5331 14.317
RightUpLeg  -35.9558 4.32045 0.271939
RightLeg  58.6122 -6.74328 -12.2171
RightFoot  -11.7246 -0.0537114 7.18925
RightToes  6.35927e-011 1.30204e-014 -6.03759e-014
Spine  39.7193 -2.40082 1.7592
Spine1  18.1608 -0.706689 -3.62431
HEad  1.64335 -1.49788 3.93471
LeftShoulder1  1.18429 -2.62254 -12.2396
LeftArm  -6.52064 31.5114 -37.4291
LeftForeArm  128.509 -81.777 -79.8195
LeftHand  -1.50261 1.79022 41.6467
RightShoulder  1.05223 1.15467 15.9232
RightArm  -3.7135 -43.8008 37.1079
RightForeArm  92.0554 79.431 51.5258
RightHand  -1.93982 1.29322 -31.7001
LeftUpLeg  -39.5023 -9.01328 4.42211
LeftLeg  66.5003 2.03297 5.80669
LeftFoot  -2.47158 1.62356 -20.0971
LeftToes  7.40077e-010 7.2695e-011 -6.03601e-011
693
root  -0.828615 35.8882 3.22629 -24.7493 -87.0157 29.4312
RightUpLeg  -39.7219 3.09846 -0.983651
RightLeg  57.9393 -5.97435 -10.6066
RightFoot  -7.33062 -0.328328 7.62992
RightToes  6.35927e-011 1.30204e-014 -6.03759e-014
Spine  40.273 -2.41181 0.28125
Spine1  15.9111 -0.94149 -4.14384
HEad  -1.00374 -0.784211 3.21938
LeftShoulder1  1.10122 -2.06195 -12.7283
LeftArm  -20.1622 34.8894 -34.4956
LeftForeArm  70.406 -77.6409 -46.2825
LeftHand  -0.0912192 4.91233 22.024
RightShoulder  1.10052 1.37118 15.9106
RightArm  -5.44603 -45.4094 33.1191
RightForeArm  74.7693 78.5042 51.2342
RightHand  0.951888 -10.3769 -22.8234
LeftUpLeg  -35.996 -6.37953 1.7393
LeftLeg  58.7605 4.66277 8.81041
LeftFoot  -11.9738 -0.00560939 -17.5262
LeftToes  7.40077e-010 7.2695e-011 -6.03601e-011
694
root  -0.422861 36.0226 3.51189 -44.3043 -86.9496 49.7301
RightUpLeg  -43.781 1.11745 -2.35056
RightLeg  60.1791 -4.86993 -9.61341
RightFoot  0.289801 -0.929315 9.12752
RightToes  6.35927e-011 1.30204e-014 -6.03759e-014
Spine  41.2278 -2.52469 -1.07095
Spine1  14.5777 -1.28179 -4.57733
HEad  -5.0457 0.00358532 2.9063
LeftShoulder1  1.17399 -2.25909 -13.3784
LeftArm  -24.1096 36.8979 -30.7808
LeftForeArm  49.8531 -73.2901 -32.7924
LeftHand  0.402128 8.40834 13.2231
RightShoulder  1.13806 1.65949 15.315
RightArm  1.14832 -46.2804 27.9643
RightForeArm  80.2062 79.5707 64.0724
RightHand  1.67421 -18.7083 -14.3789
LeftUpLeg  -34.0642 -6.84258 -0.417241
LeftLeg  54.1356 7.84157 12.0148
LeftFoot  -16.3726 -0.496028 -13.0493
LeftToes  7.40077e-010 7.2695e-011 -6.03601e-011
695
root  -0.0661414 36.0415 3.77095 -56.6008 -86.4381 61.314
RightUpLeg  -46.4405 -0.781575 -3.37174
RightLeg  63.0021 -4.15414 -9.36685
RightFoot  6.65969 -1.47694 9.62793
RightToes  6.35927e-011 1.30204e-014 -6.03759e-014
Spine  41.2399 -2.75931 -1.7606
Spine1  15.546 -1.34743 -5.45083
HEad  -9.90182 0.289631 3.42922
LeftShoulder1  1.24073 -2.67418 -13.0675
LeftArm  -17.9732 38.5209 -27.6671
LeftForeArm  55.1499 -73.8613 -34.1827
LeftHand  0.892924 10.6226 21.5019
RightShoulder  1.11335 1.68207 14.6796
RightArm  12.3654 -47.2697 23.159
RightForeArm  126.489 81.0873 97.4359
RightHand  0.834534 -14.7614 -10.9652
LeftUpLeg  -33.0446 -9.84895 -1.75091
LeftLeg  53.0127 10.3489 14.8813
LeftFoot  -16.328 -0.427342 -12.029
LeftToes  7.40077e-010 7.2695e-011 -6.03601e-011
696
root  0.146786 35.992 3.98566 -69.6547 -86.766 73.4349
RightUpLeg  -47.5106 -1.34959 -3.13821
RightLeg  65.0828 -3.56797 -8.9594
RightFoot  7.17171 -1.44685 9.14976
RightToes  6.35927e-011 1.30204e-014 -6.03759e-014
Spine  40.0935 -2.52839 -1.29558
Spine1  17.6203 -0.427266 -6.40777
HEad  -13.2518 -0.271153 3.80225
LeftShoulder1  1.16871 -2.74948 -11.5205
LeftArm  -6.77758 40.8685 -27.0312
LeftForeArm  91.9344 -79.7277 -56.6883
LeftHand  -0.0758595 4.84194 29.7412
RightShoulder  1.02869 1.42218 14.0399
RightArm  22.7714 -48.9685 19.7421
RightForeArm  178.811 80.0711 127.851
RightHand  -0.950447 -0.51333 -19.4898
LeftUpLeg  -32.19 -12.1449 -2.12677
LeftLeg  53.2812 12.0627 17.2307
LeftFoot  -15.9914 -0.443862 -13.2135
LeftToes  7.40077e-010 7.2695e-011 -6.03601e-011
697
root  0.192216 36.0088 4.10462 -89.5884 -87.1606 93.0403
RightUpLeg  -47.1027 -0.851117 -2.34246
RightLeg  66.4311 -2.88622 -7.89326
RightFoot  4.00162 -1.17269 8.9031
RightToes  6.35927e-011 1.30204e-014 -6.03759e-014
Spine  38.7077 -1.77995 -0.751126
Spine1  18.1301 0.786061 -6.70252
HEad  -14.2754 -0.81171 2.98936
LeftShoulder1  1.09852 -2.74767 -10.2854
LeftArm  1.9794 42.1831 -28.795
LeftForeArm  136.983 -82.1561 -85.2271
LeftHand  -2.42125 -4.12962 29.129
RightShoulder  0.98989 1.33224 13.5852
RightArm  28.182 -50.1936 19.2811
RightForeArm  -174.723 80.2727 127.406
RightHand  -3.42872 6.79165 -33.0342
LeftUpLeg  -31.0929 -13.0236 -2.25613
LeftLeg  52.7126 13.8047 19.0598
LeftFoot  -16.843 -0.536015 -13.2203
LeftToes  7.40077e-010 7.2695e-011 -6.03601e-011
698
root  0.130556 36.1608 4.08924 -93.4659 -86.7911 97.0305
RightUpLeg  -44.5257 -0.512821 -2.13673
RightLeg  66.5314 -2.377 -6.68954
RightFoot  1.41453 -1.01708 9.17091
RightToes  6.35927e-011 1.30204e-014 -6.03759e-014
Spine  37.8506 -1.26458 -1.01893
Spine1  16.5809 0.903419 -6.13137
HEad  -14.5568 -0.232424 1.6192
LeftShoulder1  1.15978 -2.8756 -10.9569
LeftArm  2.49834 41.0622 -32.448
LeftForeArm  112.289 -80.2804 -55.4212
LeftHand  -2.78279 -5.59219 29.4072
RightShoulder  1.03526 1.50163 13.8146
RightArm  25.5971 -49.7746 23.3645
RightForeArm  151.971 81.8779 100.892
RightHand  -3.56595 5.95468 -35.2831
LeftUpLeg  -30.3561 -13.5144 -2.61604
LeftLeg  51.6434 14.8006 19.5751
LeftFoot  -17.0627 -0.530925 -12.5667
LeftToes  7.40077e-010 7.2695e-011 -6.03601e-011
